HIERARCHY
ROOT Hips
{
	OFFSET 0.000000 0.000000 0.000000 
	CHANNELS 6 Xposition Yposition Zposition Zrotation Xrotation Yrotation
	JOINT Spine
	{
		OFFSET -0.000000 8.061080 0.000000 
		CHANNELS 3 Zrotation Xrotation Yrotation
		JOINT Spine1
		{
			OFFSET -0.000000 20.532700 0.000000 
			CHANNELS 3 Zrotation Xrotation Yrotation
			JOINT Neck
			{
				OFFSET -0.000000 22.498800 0.000000 
				CHANNELS 3 Zrotation Xrotation Yrotation
				JOINT Head
				{
					OFFSET -0.000000 15.237400 1.966120 
					CHANNELS 3 Zrotation Xrotation Yrotation
					End Site
					{
						OFFSET -0.000000 19.661222 0.000000 
					}
				}
			}
			JOINT LeftShoulder
			{
				OFFSET 3.894670 16.042299 -0.398189 
				CHANNELS 3 Zrotation Xrotation Yrotation
				JOINT LeftArm
				{
					OFFSET 19.709600 0.000000 0.000000 
					CHANNELS 3 Zrotation Xrotation Yrotation
					JOINT LeftForeArm
					{
						OFFSET 25.566900 0.000000 0.000000 
						CHANNELS 3 Zrotation Xrotation Yrotation
						JOINT LeftHand
						{
							OFFSET 25.401899 0.000000 0.000000 
							CHANNELS 3 Zrotation Xrotation Yrotation
							End Site
							{
								OFFSET 14.745918 0.000000 0.000000 
							}
						}
					}
				}
			}
			JOINT RightShoulder
			{
				OFFSET -3.930780 16.042299 -0.398189 
				CHANNELS 3 Zrotation Xrotation Yrotation
				JOINT RightArm
				{
					OFFSET -19.709600 0.000000 0.000000 
					CHANNELS 3 Zrotation Xrotation Yrotation
					JOINT RightForeArm
					{
						OFFSET -25.566900 0.000000 0.000000 
						CHANNELS 3 Zrotation Xrotation Yrotation
						JOINT RightHand
						{
							OFFSET -25.401899 0.000000 0.000000 
							CHANNELS 3 Zrotation Xrotation Yrotation
							End Site
							{
								OFFSET -14.745918 0.000000 0.000000 
							}
						}
					}
				}
			}
		}
	}
	JOINT LeftUpLeg
	{
		OFFSET 9.830590 0.000000 0.000000 
		CHANNELS 3 Zrotation Xrotation Yrotation
		JOINT LeftLeg
		{
			OFFSET -0.000000 -46.474800 0.000000 
			CHANNELS 3 Zrotation Xrotation Yrotation
			JOINT LeftFoot
			{
				OFFSET -0.000000 -30.290499 0.000000 
				CHANNELS 3 Zrotation Xrotation Yrotation
				JOINT LeftToeBase
				{
					OFFSET -0.000000 -6.389880 14.745900 
					CHANNELS 3 Zrotation Xrotation Yrotation
					End Site
					{
						OFFSET -0.000000 0.000000 3.932244 
					}
				}
			}
		}
	}
	JOINT RightUpLeg
	{
		OFFSET -9.830590 0.000000 0.000000 
		CHANNELS 3 Zrotation Xrotation Yrotation
		JOINT RightLeg
		{
			OFFSET -0.000000 -46.474800 0.000000 
			CHANNELS 3 Zrotation Xrotation Yrotation
			JOINT RightFoot
			{
				OFFSET -0.000000 -30.290499 0.000000 
				CHANNELS 3 Zrotation Xrotation Yrotation
				JOINT RightToeBase
				{
					OFFSET -0.000000 -6.389880 14.745900 
					CHANNELS 3 Zrotation Xrotation Yrotation
					End Site
					{
						OFFSET -0.000000 0.000000 3.932244 
					}
				}
			}
		}
	}
}
MOTION
Frames: 18
Frame Time: 0.010000
4.216491 86.921928 42.542038 -0.673348 9.268384 5.293368 1.618087 -10.549132 -0.171797 0.716644 4.177620 -0.131614 0.189312 0.580973 -4.458532 1.115692 1.621383 -4.739367 7.287456 7.545828 -6.135872 -66.712296 38.135971 -25.273069 -9.399087 -5.288076 -12.276625 6.057740 -6.225151 1.328211 -10.257462 9.792339 -8.087246 42.315979 57.990761 49.059742 2.680267 -13.984711 9.820814 5.200500 -13.991788 4.914441 3.855542 -12.133191 -5.518467 1.041246 -8.932118 -8.824936 -4.147995 7.713085 5.198335 0.000000 0.000000 0.000000 -6.875134 -16.038477 -0.340965 3.975128 12.686899 -0.953792 6.198164 -6.886234 -2.858303 0.000000 0.000000 0.000000 
4.135363 86.940239 43.166206 -0.668905 9.246871 5.311455 1.698928 -10.576153 0.035177 0.625472 4.197378 -0.062609 0.114262 0.619672 -4.546231 1.208511 1.617204 -4.853514 7.275017 7.517327 -6.093782 -66.812912 38.117466 -24.935724 -9.476119 -5.247952 -12.251363 6.041877 -6.193713 1.285407 -10.273682 9.722346 -8.025480 41.926491 58.009094 49.346729 2.596304 -14.083911 9.940223 5.153423 -14.083006 5.041944 3.891051 -12.729559 -5.592173 1.041246 -8.932118 -8.824936 -4.147995 7.713085 5.198335 0.000000 0.000000 0.000000 -6.779347 -15.584078 -0.402369 3.968456 12.696439 -0.957435 6.198164 -6.886234 -2.858303 0.000000 0.000000 0.000000 
4.059554 86.957718 43.790947 -0.663379 9.223494 5.325049 1.776964 -10.602939 0.239145 0.534678 4.218357 0.009109 0.039517 0.659450 -4.632747 1.300595 1.613826 -4.966300 7.262316 7.491210 -6.049874 -66.908081 38.092983 -24.603823 -9.555114 -5.205470 -12.224385 6.026517 -6.159790 1.245494 -10.289153 9.653965 -7.964820 41.535572 58.026814 49.634487 2.511240 -14.183364 10.058369 5.107876 -14.174195 5.170474 3.921515 -13.316447 -5.666076 1.041246 -8.932118 -8.824936 -4.147995 7.713085 5.198335 0.000000 0.000000 0.000000 -6.687459 -15.129432 -0.463897 3.963576 12.715344 -0.962468 6.198164 -6.886234 -2.858303 0.000000 0.000000 0.000000 
3.989223 86.974319 44.416206 -0.656562 9.198659 5.334126 1.851791 -10.629691 0.446295 0.444988 4.240272 0.076888 -0.034135 0.700113 -4.718017 1.390580 1.611344 -5.077412 7.249528 7.468181 -6.003753 -66.997139 38.062660 -24.278978 -9.636064 -5.160711 -12.195639 6.011743 -6.123421 1.208545 -10.303939 9.587271 -7.905354 41.144501 58.043507 49.922009 2.425544 -14.282684 10.175171 5.063787 -14.264994 5.299787 3.946730 -13.892782 -5.740728 1.041246 -8.932118 -8.824936 -4.147995 7.713085 5.198335 0.000000 0.000000 0.000000 -6.600030 -14.675409 -0.525401 3.960804 12.744276 -0.968944 6.198164 -6.886234 -2.858303 0.000000 0.000000 0.000000 
3.924482 86.989967 45.042038 -0.648535 9.172208 5.338839 1.923464 -10.656300 0.650926 0.356063 4.263194 0.145865 -0.107600 0.741604 -4.801762 1.480112 1.609729 -5.186944 7.236798 7.448667 -5.955144 -67.079735 38.026569 -23.962204 -9.718887 -5.113670 -12.165222 5.997618 -6.084632 1.174731 -10.317984 9.522300 -7.847123 40.754078 58.059109 50.208759 2.339454 -14.381613 10.290433 5.021228 -14.355192 5.429585 3.966833 -14.456916 -5.816584 1.041246 -8.932118 -8.824936 -4.147995 7.713085 5.198335 0.000000 0.000000 0.000000 -6.517149 -14.222172 -0.586891 3.960230 12.783725 -0.976937 6.198164 -6.886234 -2.858303 0.000000 0.000000 0.000000 
3.865468 87.004639 45.668392 -0.639161 9.144479 5.339194 1.991679 -10.682935 0.853912 0.268224 4.286916 0.214713 -0.180052 0.783781 -4.883988 1.567691 1.608975 -5.294508 7.224304 7.432966 -5.903913 -67.155754 37.985210 -23.654369 -9.803204 -5.064615 -12.133115 5.984167 -6.043637 1.144084 -10.331382 9.459193 -7.790280 40.364971 58.073608 50.494514 2.253058 -14.480013 10.403824 4.980306 -14.444641 5.559621 3.981700 -15.007784 -5.894089 1.041246 -8.932118 -8.824936 -4.147995 7.713085 5.198335 0.000000 0.000000 0.000000 -6.439150 -13.770514 -0.648410 3.961831 12.834216 -0.986563 6.198164 -6.886234 -2.858303 0.000000 0.000000 0.000000 
3.812267 87.018295 46.295296 -0.628537 9.115490 5.335330 2.056472 -10.709465 1.055411 0.181577 4.311220 0.282718 -0.251759 0.826515 -4.964475 1.653839 1.609172 -5.400067 7.211996 7.421621 -5.849810 -67.224709 37.938564 -23.356503 -9.888935 -5.013587 -12.099416 5.971487 -6.000425 1.116759 -10.344015 9.397916 -7.734737 39.978397 58.086987 50.778442 2.166582 -14.577620 10.514945 4.941015 -14.533093 5.689765 3.991616 -15.544127 -5.973787 1.041246 -8.932118 -8.824936 -4.147995 7.713085 5.198335 0.000000 0.000000 0.000000 -6.366104 -13.320844 -0.709984 3.965646 12.896256 -0.997918 6.198164 -6.886234 -2.858303 0.000000 0.000000 0.000000 
3.764998 87.030884 46.922733 -0.616521 9.085488 5.327277 2.117534 -10.736058 1.254532 0.096330 4.336085 0.350313 -0.322706 0.869485 -5.043135 1.738477 1.610458 -5.503457 7.200268 7.414981 -5.792469 -67.286430 37.886871 -23.069731 -9.976117 -4.960580 -12.064312 5.959672 -5.955039 1.092892 -10.356142 9.338624 -7.680810 39.594769 58.099125 51.060596 2.080304 -14.674208 10.623711 4.903530 -14.620344 5.819645 3.996343 -16.064844 -6.055910 1.041246 -8.932118 -8.824936 -4.147995 7.713085 5.198335 0.000000 0.000000 0.000000 -6.298365 -12.873857 -0.771624 3.971745 12.970394 -1.011102 6.198164 -6.886234 -2.858303 0.000000 0.000000 0.000000 
3.723730 87.042381 47.550743 -0.603218 9.054423 5.315188 2.174920 -10.762553 1.451172 0.012567 4.361233 0.417042 -0.392745 0.912624 -5.119810 1.821382 1.612975 -5.604508 7.189075 7.413525 -5.731773 -67.340683 37.830486 -22.794935 -10.064426 -4.905828 -12.027665 5.948792 -5.907660 1.072507 -10.367620 9.281343 -7.628340 39.215199 58.110031 51.340115 1.994449 -14.769529 10.729754 4.867795 -14.706188 5.949110 3.996169 -16.568737 -6.140860 1.041246 -8.932118 -8.824936 -4.147995 7.713085 5.198335 0.000000 0.000000 0.000000 -6.235970 -12.429922 -0.833370 3.980147 13.057118 -1.026218 6.198164 -6.886234 -2.858303 0.000000 0.000000 0.000000 
3.688538 87.052780 48.179310 -0.588602 9.022508 5.299146 2.228480 -10.789032 1.644800 -0.069609 4.386555 0.482983 -0.461608 0.955891 -5.194433 1.902217 1.616491 -5.703037 7.178590 7.417590 -5.667511 -67.387260 37.769558 -22.533079 -10.153730 -4.849408 -11.989467 5.938824 -5.858311 1.055552 -10.378402 9.226110 -7.577480 38.840557 58.119579 51.616520 1.909336 -14.863299 10.832938 4.833741 -14.790378 6.077851 3.991187 -17.054916 -6.229052 1.041246 -8.932118 -8.824936 -4.147995 7.713085 5.198335 0.000000 0.000000 0.000000 -6.179118 -11.989728 -0.895201 3.990879 13.156994 -1.043387 6.198164 -6.886234 -2.858303 0.000000 0.000000 0.000000 
3.659498 87.062042 48.808449 -0.572643 8.989868 5.279242 2.278052 -10.815546 1.835292 -0.149926 4.411926 0.547766 -0.529688 0.999078 -5.266815 1.981450 1.621130 -5.798993 7.168934 7.427544 -5.599435 -67.426056 37.704342 -22.285038 -10.244032 -4.791407 -11.949835 5.929990 -5.807103 1.042245 -10.388769 9.172915 -7.528237 38.471794 58.127949 51.889389 1.825059 -14.955350 10.932964 4.801512 -14.872748 6.205653 3.981365 -17.522457 -6.320575 1.041246 -8.932118 -8.824936 -4.147995 7.713085 5.198335 0.000000 0.000000 0.000000 -6.128114 -11.553844 -0.956897 4.004238 13.270478 -1.062639 6.198164 -6.886234 -2.858303 0.000000 0.000000 0.000000 
3.636650 87.070160 49.438175 -0.555424 8.956562 5.255618 2.323659 -10.842084 2.021998 -0.228399 4.437255 0.611559 -0.596387 1.041903 -5.336924 2.058250 1.627129 -5.892129 7.160264 7.443667 -5.527422 -67.456978 37.635052 -22.051598 -10.335162 -4.731910 -11.908758 5.922300 -5.754106 1.032524 -10.398615 9.121900 -7.480785 38.109291 58.134983 52.158730 1.741977 -15.045439 11.029493 4.771117 -14.953095 6.332347 3.966942 -17.970505 -6.415679 1.041246 -8.932118 -8.824936 -4.147995 7.713085 5.198335 0.000000 0.000000 0.000000 -6.082883 -11.122818 -1.018730 4.019911 13.398048 -1.084171 6.198164 -6.886234 -2.858303 0.000000 0.000000 0.000000 
3.620049 87.077126 50.068504 -0.536906 8.922697 5.228368 2.365133 -10.868667 2.204812 -0.304796 4.462414 0.674001 -0.661992 1.084339 -5.404596 2.133017 1.634407 -5.982390 7.152536 7.466247 -5.451397 -67.479927 37.561825 -21.833405 -10.427102 -4.671025 -11.866267 5.915911 -5.699416 1.026397 -10.407987 9.072967 -7.434993 37.754520 58.140602 52.423275 1.660390 -15.133238 11.122614 4.742471 -15.031155 6.457558 3.947918 -18.398298 -6.514452 1.041246 -8.932118 -8.824936 -4.147995 7.713085 5.198335 0.000000 0.000000 0.000000 -6.043642 -10.697236 -1.080609 4.037982 13.540206 -1.108086 6.198164 -6.886234 -2.858303 0.000000 0.000000 0.000000 
3.609721 87.082939 50.699425 -0.517141 8.888458 5.197623 2.402464 -10.895310 2.383205 -0.379107 4.487175 0.735167 -0.726515 1.126148 -5.469726 2.205868 1.643161 -6.069666 7.146034 7.495588 -5.371093 -67.494957 37.484951 -21.631325 -10.519717 -4.608833 -11.822292 5.910829 -5.643089 1.023842 -10.416926 9.026136 -7.390962 37.408073 58.144947 52.682953 1.580515 -15.218546 11.211936 4.715652 -15.106727 6.581181 3.924495 -18.805309 -6.617010 1.041246 -8.932118 -8.824936 -4.147995 7.713085 5.198335 0.000000 0.000000 0.000000 -6.010522 -10.277785 -1.142498 4.058585 13.697371 -1.134462 6.198164 -6.886234 -2.858303 0.000000 0.000000 0.000000 
3.605686 87.087616 51.330959 -0.496156 8.853886 5.163501 2.435561 -10.922079 2.557036 -0.451160 4.511547 0.794768 -0.789399 1.167291 -5.532279 2.275901 1.653145 -6.153720 7.140795 7.531850 -5.286499 -67.502136 37.404602 -21.445900 -10.612932 -4.545459 -11.776756 5.907185 -5.585231 1.024830 -10.425437 8.981612 -7.348875 37.070477 58.147900 52.937702 1.502553 -15.301153 11.297257 4.690639 -15.179630 6.702924 3.896765 -19.190893 -6.723266 1.041246 -8.932118 -8.824936 -4.147995 7.713085 5.198335 0.000000 0.000000 0.000000 -5.983643 -9.864997 -1.204218 4.081792 13.869942 -1.163391 6.198164 -6.886234 -2.858303 0.000000 0.000000 0.000000 
3.607955 87.091141 51.963123 -0.473989 8.819028 5.126136 2.464359 -10.948844 2.725856 -0.520780 4.535258 0.852795 -0.851247 1.207673 -5.592076 2.344075 1.664565 -6.234597 7.136846 7.575354 -5.197494 -67.501495 37.320839 -21.277742 -10.706761 -4.480898 -11.729799 5.905072 -5.525851 1.029394 -10.433687 8.939198 -7.308551 36.742973 58.149521 53.186398 1.426973 -15.380774 11.378689 4.667301 -15.249653 6.822529 3.864818 -19.554501 -6.833125 1.041246 -8.932118 -8.824936 -4.147995 7.713085 5.198335 0.000000 0.000000 0.000000 -5.962965 -9.459451 -1.266045 4.107305 14.058360 -1.195073 6.198164 -6.886234 -2.858303 0.000000 0.000000 0.000000 
3.616524 87.093552 52.595913 -0.450691 8.784001 5.085662 2.488836 -10.975695 2.889358 -0.587919 4.558298 0.909144 -0.911457 1.246963 -5.649107 2.409418 1.677609 -6.312061 7.134265 7.626164 -5.104042 -67.493126 37.234055 -21.127430 -10.801027 -4.415387 -11.681207 5.904610 -5.465155 1.037441 -10.441547 8.899054 -7.270165 36.425919 58.149807 53.429234 1.353736 -15.457206 11.455663 4.645784 -15.316622 6.939913 3.828852 -19.895819 -6.946476 1.041246 -8.932118 -8.824936 -4.147995 7.713085 5.198335 0.000000 0.000000 0.000000 -5.948587 -9.061772 -1.327808 4.135211 14.262927 -1.229586 6.198164 -6.886234 -2.858303 0.000000 0.000000 0.000000 
3.631382 87.094864 53.229328 -0.426305 8.748924 5.042201 2.508964 -11.002672 3.047338 -0.652498 4.580567 0.963655 -0.970440 1.285029 -5.703246 2.472773 1.692372 -6.386138 7.133192 7.684444 -5.006080 -67.477135 37.144131 -20.995384 -10.895974 -4.348834 -11.631174 5.905947 -5.403056 1.048982 -10.449124 8.861029 -7.233677 36.120300 58.148842 53.665371 1.283357 -15.530217 11.528366 4.625908 -15.380351 7.054776 3.789027 -20.214611 -7.063107 1.041246 -8.932118 -8.824936 -4.147995 7.713085 5.198335 0.000000 0.000000 0.000000 -5.940639 -8.672618 -1.389343 4.165726 14.483985 -1.266991 6.198164 -6.886234 -2.858303 0.000000 0.000000 0.000000 
